<?xml version="1.0" encoding="UTF-8" standalone="no"?>
<!-- Created with Inkscape (http://www.inkscape.org/) -->

<svg
   xmlns:dc="http://purl.org/dc/elements/1.1/"
   xmlns:cc="http://creativecommons.org/ns#"
   xmlns:rdf="http://www.w3.org/1999/02/22-rdf-syntax-ns#"
   xmlns:svg="http://www.w3.org/2000/svg"
   xmlns="http://www.w3.org/2000/svg"
   xmlns:xlink="http://www.w3.org/1999/xlink"
   xmlns:sodipodi="http://sodipodi.sourceforge.net/DTD/sodipodi-0.dtd"
   xmlns:inkscape="http://www.inkscape.org/namespaces/inkscape"
   width="300"
   height="300"
   id="svg3886"
   version="1.1"
   inkscape:version="0.48.4 r9939"
   sodipodi:docname="fsfs_icons_red-bg.svg"
   inkscape:export-filename="/home/ana/Desktop/Bini/fsf-badge/HTML-badge/img/new/fsfs_icons_red-bg.png"
   inkscape:export-xdpi="90"
   inkscape:export-ydpi="90">
  <defs
     id="defs3888">
    <linearGradient
       id="linearGradient4444">
      <stop
         style="stop-color:#ffffff;stop-opacity:1;"
         offset="0"
         id="stop4446" />
      <stop
         style="stop-color:#ffffff;stop-opacity:0;"
         offset="1"
         id="stop4448" />
    </linearGradient>
    <linearGradient
       id="linearGradient4720">
      <stop
         id="stop4722"
         offset="0"
         style="stop-color:#ffffff;stop-opacity:1;" />
      <stop
         id="stop4724"
         offset="1"
         style="stop-color:#bcbcbc;stop-opacity:1;" />
    </linearGradient>
    <linearGradient
       id="linearGradient3784">
      <stop
         style="stop-color:#ffffff;stop-opacity:1;"
         offset="0"
         id="stop3786" />
      <stop
         style="stop-color:#ffffff;stop-opacity:0;"
         offset="1"
         id="stop3788" />
    </linearGradient>
    <radialGradient
       inkscape:collect="always"
       xlink:href="#linearGradient3540"
       id="radialGradient5168"
       gradientUnits="userSpaceOnUse"
       gradientTransform="matrix(1.1987781,0.69211486,-0.71791583,1.2434667,3776.8465,1640.475)"
       cx="-2503.5745"
       cy="226.79642"
       fx="-2503.5745"
       fy="226.79642"
       r="150" />
    <linearGradient
       id="linearGradient3540">
      <stop
         style="stop-color:#ffffff;stop-opacity:1;"
         offset="0"
         id="stop3542" />
      <stop
         style="stop-color:#ffdd62;stop-opacity:1;"
         offset="1"
         id="stop3544" />
    </linearGradient>
    <linearGradient
       id="linearGradient4444-9">
      <stop
         style="stop-color:#ffffff;stop-opacity:1;"
         offset="0"
         id="stop4446-0" />
      <stop
         style="stop-color:#ffffff;stop-opacity:0;"
         offset="1"
         id="stop4448-0" />
    </linearGradient>
    <linearGradient
       id="linearGradient3540-0">
      <stop
         style="stop-color:#ffffff;stop-opacity:1;"
         offset="0"
         id="stop3542-5" />
      <stop
         style="stop-color:#ffdd62;stop-opacity:1;"
         offset="1"
         id="stop3544-6" />
    </linearGradient>
    <linearGradient
       id="linearGradient4249">
      <stop
         style="stop-color:#ffffff;stop-opacity:1;"
         offset="0"
         id="stop4251" />
      <stop
         style="stop-color:#ffffff;stop-opacity:0;"
         offset="1"
         id="stop4253" />
    </linearGradient>
    <radialGradient
       inkscape:collect="always"
       xlink:href="#linearGradient3540-0"
       id="radialGradient5156"
       gradientUnits="userSpaceOnUse"
       gradientTransform="matrix(1.1987781,0.69211486,-0.71791583,1.2434667,3776.8465,2005.475)"
       cx="-2503.5745"
       cy="226.79642"
       fx="-2503.5745"
       fy="226.79642"
       r="150" />
    <linearGradient
       id="linearGradient4260">
      <stop
         style="stop-color:#ffffff;stop-opacity:1;"
         offset="0"
         id="stop4262" />
      <stop
         style="stop-color:#ffdd62;stop-opacity:1;"
         offset="1"
         id="stop4264" />
    </linearGradient>
    <linearGradient
       id="linearGradient6184">
      <stop
         id="stop6186"
         offset="0"
         style="stop-color:#000000;stop-opacity:1;" />
      <stop
         id="stop6188"
         offset="1"
         style="stop-color:#000000;stop-opacity:0;" />
    </linearGradient>
    <radialGradient
       inkscape:collect="always"
       xlink:href="#linearGradient4438"
       id="radialGradient5160"
       gradientUnits="userSpaceOnUse"
       gradientTransform="matrix(1.1987781,0.69211486,-0.71791583,1.2434667,3776.8465,2364.475)"
       cx="-2503.5745"
       cy="226.79642"
       fx="-2503.5745"
       fy="226.79642"
       r="150" />
    <linearGradient
       id="linearGradient4438">
      <stop
         id="stop4440"
         offset="0"
         style="stop-color:#a02c2c;stop-opacity:1" />
      <stop
         id="stop4442"
         offset="1"
         style="stop-color:#711f1f;stop-opacity:1" />
    </linearGradient>
    <linearGradient
       id="linearGradient4444-1">
      <stop
         style="stop-color:#ffffff;stop-opacity:1;"
         offset="0"
         id="stop4446-6" />
      <stop
         style="stop-color:#ffffff;stop-opacity:0;"
         offset="1"
         id="stop4448-1" />
    </linearGradient>
    <linearGradient
       id="linearGradient4720-5">
      <stop
         id="stop4722-0"
         offset="0"
         style="stop-color:#ffffff;stop-opacity:1;" />
      <stop
         id="stop4724-1"
         offset="1"
         style="stop-color:#bcbcbc;stop-opacity:1;" />
    </linearGradient>
    <linearGradient
       id="linearGradient4955">
      <stop
         style="stop-color:#ffffff;stop-opacity:1;"
         offset="0"
         id="stop4957" />
      <stop
         style="stop-color:#ffffff;stop-opacity:0;"
         offset="1"
         id="stop4959" />
    </linearGradient>
    <radialGradient
       inkscape:collect="always"
       xlink:href="#linearGradient3540-6"
       id="radialGradient5618"
       gradientUnits="userSpaceOnUse"
       gradientTransform="matrix(1.1987781,0.69211486,-0.71791583,1.2434667,3358.2424,1640.475)"
       cx="-2503.5745"
       cy="226.79642"
       fx="-2503.5745"
       fy="226.79642"
       r="150" />
    <linearGradient
       id="linearGradient3540-6">
      <stop
         style="stop-color:#ffffff;stop-opacity:1;"
         offset="0"
         id="stop3542-6" />
      <stop
         style="stop-color:#ffdd62;stop-opacity:1;"
         offset="1"
         id="stop3544-5" />
    </linearGradient>
    <linearGradient
       id="linearGradient4444-8">
      <stop
         style="stop-color:#ffffff;stop-opacity:1;"
         offset="0"
         id="stop4446-5" />
      <stop
         style="stop-color:#ffffff;stop-opacity:0;"
         offset="1"
         id="stop4448-3" />
    </linearGradient>
    <linearGradient
       id="linearGradient3540-4">
      <stop
         style="stop-color:#ffffff;stop-opacity:1;"
         offset="0"
         id="stop3542-4" />
      <stop
         style="stop-color:#ffdd62;stop-opacity:1;"
         offset="1"
         id="stop3544-1" />
    </linearGradient>
    <linearGradient
       id="linearGradient5412">
      <stop
         style="stop-color:#ffffff;stop-opacity:1;"
         offset="0"
         id="stop5414" />
      <stop
         style="stop-color:#ffffff;stop-opacity:0;"
         offset="1"
         id="stop5416" />
    </linearGradient>
    <radialGradient
       inkscape:collect="always"
       xlink:href="#linearGradient3540-4"
       id="radialGradient5606"
       gradientUnits="userSpaceOnUse"
       gradientTransform="matrix(1.1987781,0.69211486,-0.71791583,1.2434667,3358.2424,2005.475)"
       cx="-2503.5745"
       cy="226.79642"
       fx="-2503.5745"
       fy="226.79642"
       r="150" />
    <linearGradient
       id="linearGradient5423">
      <stop
         style="stop-color:#ffffff;stop-opacity:1;"
         offset="0"
         id="stop5425" />
      <stop
         style="stop-color:#ffdd62;stop-opacity:1;"
         offset="1"
         id="stop5427" />
    </linearGradient>
    <linearGradient
       id="linearGradient6184-1">
      <stop
         id="stop6186-9"
         offset="0"
         style="stop-color:#000000;stop-opacity:1;" />
      <stop
         id="stop6188-7"
         offset="1"
         style="stop-color:#000000;stop-opacity:0;" />
    </linearGradient>
    <radialGradient
       inkscape:collect="always"
       xlink:href="#linearGradient4438-3"
       id="radialGradient5610"
       gradientUnits="userSpaceOnUse"
       gradientTransform="matrix(1.1987781,0.69211486,-0.71791583,1.2434667,3358.2424,2364.475)"
       cx="-2503.5745"
       cy="226.79642"
       fx="-2503.5745"
       fy="226.79642"
       r="150" />
    <linearGradient
       id="linearGradient4438-3">
      <stop
         id="stop4440-7"
         offset="0"
         style="stop-color:#a02c2c;stop-opacity:1" />
      <stop
         id="stop4442-0"
         offset="1"
         style="stop-color:#711f1f;stop-opacity:1" />
    </linearGradient>
  </defs>
  <sodipodi:namedview
     id="base"
     pagecolor="#ffffff"
     bordercolor="#666666"
     borderopacity="1.0"
     inkscape:pageopacity="0.0"
     inkscape:pageshadow="2"
     inkscape:zoom="0.85921053"
     inkscape:cx="163.12186"
     inkscape:cy="106.29622"
     inkscape:document-units="px"
     inkscape:current-layer="g16678"
     showgrid="false"
     fit-margin-top="0"
     fit-margin-left="0"
     fit-margin-right="0"
     fit-margin-bottom="0"
     inkscape:window-width="1366"
     inkscape:window-height="721"
     inkscape:window-x="-2"
     inkscape:window-y="-3"
     inkscape:window-maximized="1" />
  <metadata
     id="metadata3891">
    <rdf:RDF>
      <cc:Work
         rdf:about="">
        <dc:format>image/svg+xml</dc:format>
        <dc:type
           rdf:resource="http://purl.org/dc/dcmitype/StillImage" />
        <dc:title />
      </cc:Work>
    </rdf:RDF>
  </metadata>
  <g
     inkscape:label="Layer 1"
     inkscape:groupmode="layer"
     id="layer1"
     transform="translate(-330,-288.07648)">
    <g
       transform="translate(-26.798981,-715.8255)"
       id="g16678"
       inkscape:export-filename="/home/ana/Desktop/Bini/fsf-badge/HTML-badge/img/new/fsfs_icons_red-bg.png"
       inkscape:export-xdpi="90"
       inkscape:export-ydpi="90">
      <rect
         style="color:#000000;fill:#ffffff;fill-opacity:1;fill-rule:nonzero;stroke:none;stroke-width:2;marker:none;visibility:visible;display:inline;overflow:visible;enable-background:accumulate"
         id="rect16207"
         width="300"
         height="300"
         x="-1303.902"
         y="356.79898"
         transform="matrix(0,-1,1,0,0,0)"
         inkscape:export-filename="/home/ana/Desktop/fsf-banner/iconized/sent/fsfs_icons_red-bg.png"
         inkscape:export-xdpi="90"
         inkscape:export-ydpi="90" />
      <rect
         transform="matrix(0,-1,1,0,0,0)"
         y="356.79898"
         x="-1263.902"
         height="300"
         width="260"
         id="rect16209"
         style="color:#000000;fill:#b31515;fill-opacity:1;fill-rule:nonzero;stroke:none;stroke-width:2;marker:none;visibility:visible;display:inline;overflow:visible;enable-background:accumulate" />
      <flowRoot
         xml:space="preserve"
         id="flowRoot16211"
         style="font-size:40px;font-style:normal;font-variant:normal;font-weight:normal;font-stretch:normal;line-height:125%;letter-spacing:0px;word-spacing:0px;color:#000000;fill:#b31515;fill-opacity:1;fill-rule:nonzero;stroke:none;stroke-width:0.21547168;marker:none;visibility:visible;display:inline;overflow:visible;enable-background:accumulate;font-family:Titillium Web;-inkscape-font-specification:Titillium Web"
         transform="matrix(1.021609,0,0,1.021609,71.123816,980.36497)"><flowRegion
           id="flowRegion16213"><rect
             id="rect16215"
             width="260.11859"
             height="635.75983"
             x="316.80673"
             y="287.76135"
             style="color:#000000;fill:#b31515;fill-opacity:1;fill-rule:nonzero;stroke-width:0.21547168;marker:none;visibility:visible;display:inline;overflow:visible;enable-background:accumulate" /></flowRegion><flowPara
           id="flowPara16217"
           style="font-size:21.53465843px;font-style:normal;font-variant:normal;font-weight:900;font-stretch:normal;text-align:start;line-height:89.99999762%;letter-spacing:1.9576962px;writing-mode:lr-tb;text-anchor:start;color:#000000;fill:#b31515;fill-opacity:1;fill-rule:nonzero;stroke-width:0.21547168;marker:none;visibility:visible;display:inline;overflow:visible;enable-background:accumulate;font-family:Raleway;-inkscape-font-specification:Raleway Heavy">FSF.ORG</flowPara></flowRoot>      <flowRoot
         transform="matrix(0.94026714,0,0,0.94026714,96.59181,897.21696)"
         style="font-size:40px;font-style:normal;font-variant:normal;font-weight:normal;font-stretch:normal;line-height:125%;letter-spacing:0px;word-spacing:0px;color:#000000;fill:#d3bc5f;fill-opacity:1;fill-rule:nonzero;stroke:none;stroke-width:0.21547168;marker:none;visibility:visible;display:inline;overflow:visible;enable-background:accumulate;font-family:Titillium Web;-inkscape-font-specification:Titillium Web"
         id="flowRoot16221"
         xml:space="preserve"><flowRegion
           id="flowRegion16223"><rect
             style="color:#000000;fill:#d3bc5f;fill-opacity:1;fill-rule:nonzero;stroke-width:0.21547168;marker:none;visibility:visible;display:inline;overflow:visible;enable-background:accumulate"
             y="287.76135"
             x="316.80673"
             height="635.75983"
             width="260.11859"
             id="rect16225" /></flowRegion><flowPara
           style="font-size:48px;font-style:normal;font-variant:normal;font-weight:800;font-stretch:normal;text-align:start;line-height:89.99999762%;letter-spacing:1.9576962px;writing-mode:lr-tb;text-anchor:start;color:#000000;fill:#d3bc5f;fill-opacity:1;fill-rule:nonzero;stroke-width:0.21547168;marker:none;visibility:visible;display:inline;overflow:visible;enable-background:accumulate;font-family:Raleway;-inkscape-font-specification:Raleway Ultra-Bold"
           id="flowPara16227">Sociedad Libre.</flowPara></flowRoot>      <flowRoot
         xml:space="preserve"
         id="flowRoot16229"
         style="font-size:40px;font-style:normal;font-variant:normal;font-weight:normal;font-stretch:normal;line-height:125%;letter-spacing:0px;word-spacing:0px;color:#000000;fill:#d3bc5f;fill-opacity:1;fill-rule:nonzero;stroke:none;stroke-width:0.21547168;marker:none;visibility:visible;display:inline;overflow:visible;enable-background:accumulate;font-family:Titillium Web;-inkscape-font-specification:Titillium Web"
         transform="matrix(0.94026714,0,0,0.94026714,96.59181,753.95639)"><flowRegion
           id="flowRegion16231"><rect
             id="rect16233"
             width="260.11859"
             height="635.75983"
             x="316.80673"
             y="287.76135"
             style="color:#000000;fill:#d3bc5f;fill-opacity:1;fill-rule:nonzero;stroke-width:0.21547168;marker:none;visibility:visible;display:inline;overflow:visible;enable-background:accumulate" /></flowRegion><flowPara
           id="flowPara16235"
           style="font-size:48px;font-style:normal;font-variant:normal;font-weight:800;font-stretch:normal;text-align:start;line-height:89.99999762%;letter-spacing:1.9576962px;writing-mode:lr-tb;text-anchor:start;color:#000000;fill:#d3bc5f;fill-opacity:1;fill-rule:nonzero;stroke-width:0.21547168;marker:none;visibility:visible;display:inline;overflow:visible;enable-background:accumulate;font-family:Raleway;-inkscape-font-specification:Raleway Ultra-Bold">Software Libre.</flowPara><flowPara
           id="flowPara16237"
           style="font-size:48px;font-style:normal;font-variant:normal;font-weight:800;font-stretch:normal;text-align:start;line-height:89.99999762%;letter-spacing:1.9576962px;writing-mode:lr-tb;text-anchor:start;color:#000000;fill:#d3bc5f;fill-opacity:1;fill-rule:nonzero;stroke-width:0.21547168;marker:none;visibility:visible;display:inline;overflow:visible;enable-background:accumulate;font-family:Raleway;-inkscape-font-specification:Raleway Ultra-Bold" /></flowRoot>      <g
         transform="matrix(1.1,0,0,1.1,-573.07709,1678.0082)"
         id="g16410"
         style="fill:#ffffff;fill-opacity:1">
        <path
           style="color:#000000;fill:#ffffff;fill-opacity:1;fill-rule:nonzero;stroke:none;stroke-width:0.23958097;marker:none;visibility:visible;display:inline;overflow:visible;enable-background:accumulate"
           d="m 882.32926,-509.40496 c 0,-1.25173 0.83634,-1.6848 1.85804,-0.95835 l 19.37368,13.75959 c 1.02074,0.72551 1.02074,1.91204 0,2.63755 l -19.37462,13.75865 c -1.02169,0.72458 -1.85803,0.29338 -1.85803,-0.9602 v -28.23724 z"
           id="path16412"
           inkscape:connector-curvature="0" />
      </g>
      <g
         transform="matrix(1.0348936,0,0,1.0348936,-536.36439,1646.9473)"
         id="g16400"
         style="fill:#ffffff;fill-opacity:1">
        <path
           id="path16402"
           d="m 1098.502,-514.79064 0,4.6875 c 0,0.50291 -0.019,0.86604 -0.063,1.15625 -0.044,0.29021 -0.1189,0.52446 -0.2813,0.71875 a 0.45004499,0.45004499 0 0 1 -0.031,0 c -0.1808,0.21567 -0.4735,0.35375 -0.7187,0.34375 -0.2453,-0.01 -0.43,-0.0818 -0.625,-0.15625 -0.3901,-0.14903 -0.814,-0.34375 -1.375,-0.34375 -1.2091,0 -2.1563,0.97853 -2.1563,2.1875 0,1.20908 0.9478,2.1875 2.1563,2.1875 0.5616,0 0.9849,-0.16355 1.375,-0.3125 0.195,-0.0745 0.3798,-0.1775 0.625,-0.1875 0.2451,-0.01 0.5379,0.12823 0.7187,0.34375 0.1625,0.1943 0.2689,0.45979 0.3125,0.75 0.044,0.29021 0.063,0.62209 0.063,1.125 l 0,4.71875 3.9375,0 c 0.2116,0 0.2679,-0.0222 0.3438,-0.0313 0,-0.0327 0,-0.0184 -0.031,-0.1875 -0.043,-0.25666 -0.094,-0.64173 -0.094,-1.15625 0,-1.16785 0.6246,-2.1845 1.4687,-2.90625 0.8441,-0.72175 1.9359,-1.1875 3,-1.1875 1.0567,0 2.1225,0.44335 2.9688,1.15625 0.8462,0.7129 1.4687,1.7351 1.4687,2.9375 0,0.51438 -0.082,0.89957 -0.125,1.15625 -0.029,0.1722 -0.026,0.1566 -0.031,0.1875 0.07,0.009 0.1444,0.0313 0.375,0.0313 l 3.9375,0 0,-17.21875 -17.2187,0 z"
           style="color:#000000;fill:#ffffff;fill-opacity:1;fill-rule:nonzero;stroke:none;stroke-width:0.23958097;marker:none;visibility:visible;display:inline;overflow:visible;enable-background:accumulate"
           inkscape:connector-curvature="0" />
        <path
           id="path16404"
           d="m 1079.0957,-514.79064 0,17.21875 4.7188,0 c 0.5026,0 0.8348,-0.0123 1.125,0.0313 0.2901,0.0436 0.5555,0.15024 0.75,0.3125 0.2156,0.18081 0.3537,0.50473 0.3437,0.75 -0.01,0.24527 -0.113,0.42996 -0.1875,0.625 -0.149,0.39009 -0.3125,0.78273 -0.3125,1.34375 0,1.20907 0.9785,2.1875 2.1875,2.1875 1.2091,0 2.1875,-0.97895 2.1875,-2.1875 0,-0.5616 -0.1948,-0.95372 -0.3437,-1.34375 -0.074,-0.19502 -0.1463,-0.37982 -0.1563,-0.625 -0.01,-0.24518 0.1282,-0.56915 0.3438,-0.75 0.1944,-0.16231 0.4285,-0.2689 0.7187,-0.3125 0.2902,-0.0436 0.6536,-0.0313 1.1563,-0.0313 l 4.6875,0 0,-3.9375 c 0,-0.23064 -0.022,-0.3057 -0.031,-0.375 -0.045,0.003 -0.012,0.007 -0.1563,0.0313 -0.2567,0.0428 -0.6417,0.125 -1.1562,0.125 -1.1679,0 -2.2159,-0.62464 -2.9375,-1.46875 -0.7217,-0.84411 -1.1563,-1.93596 -1.1563,-3 0,-1.05668 0.4122,-2.12247 1.125,-2.96875 0.7128,-0.84628 1.7664,-1.46875 2.9688,-1.46875 0.5143,0 0.8995,0.0508 1.1562,0.0937 0.142,0.0233 0.1105,0.0282 0.1563,0.0313 0.01,-0.0716 0.031,-0.11824 0.031,-0.34375 l 0,-3.9375 -17.2188,0 z"
           style="color:#000000;fill:#ffffff;fill-opacity:1;fill-rule:nonzero;stroke:none;stroke-width:0.23958097;marker:none;visibility:visible;display:inline;overflow:visible;enable-background:accumulate"
           inkscape:connector-curvature="0" />
        <path
           id="path16406"
           d="m 1079.0957,-495.29064 0,17.21875 17.2188,0 0,-4.71875 c 0,-0.50245 0.019,-0.83478 0.063,-1.125 0.044,-0.29022 0.1501,-0.55548 0.3125,-0.75 0.1808,-0.2156 0.4735,-0.3226 0.7187,-0.3125 0.2452,0.0101 0.43,0.0818 0.625,0.15625 0.39,0.14907 0.8137,0.3125 1.375,0.3125 1.2085,0 2.1875,-0.94729 2.1875,-2.15625 0,-1.20908 -0.9795,-2.1875 -2.1875,-2.1875 -0.5619,0 -0.9849,0.16359 -1.375,0.3125 -0.1951,0.0744 -0.3797,0.14625 -0.625,0.15625 -0.2452,0.01 -0.538,-0.0969 -0.7187,-0.3125 -0.1623,-0.19434 -0.2689,-0.45984 -0.3125,-0.75 -0.044,-0.29016 -0.063,-0.62209 -0.063,-1.125 l 0,-4.71875 -3.9375,0 c -0.2256,0 -0.2726,0.0222 -0.3438,0.0313 0,0.0414 0.01,0.0345 0.031,0.1875 0.043,0.25664 0.094,0.64195 0.094,1.15625 0,1.16805 -0.5934,2.18466 -1.4375,2.90625 -0.8441,0.72159 -1.936,1.15625 -3,1.15625 -1.0567,0 -2.1537,-0.41222 -3,-1.125 -0.8463,-0.71278 -1.4375,-1.7351 -1.4375,-2.9375 0,-0.51438 0.051,-0.89957 0.094,-1.15625 0.026,-0.155 0.027,-0.1471 0.031,-0.1875 -0.07,-0.009 -0.1444,-0.0313 -0.375,-0.0313 l -3.9375,0 z"
           style="color:#000000;fill:#ffffff;fill-opacity:1;fill-rule:nonzero;stroke:none;stroke-width:0.23958097;marker:none;visibility:visible;display:inline;overflow:visible;enable-background:accumulate"
           inkscape:connector-curvature="0" />
        <path
           id="path16408"
           d="m 1107.127,-500.54064 c -1.2091,0 -2.1875,0.97898 -2.1875,2.1875 0,0.5616 0.1635,0.95372 0.3125,1.34375 0.074,0.19502 0.1462,0.37982 0.1562,0.625 0.01,0.24518 -0.097,0.56915 -0.3125,0.75 -0.1945,0.16275 -0.4598,0.23775 -0.75,0.28125 -0.2902,0.0435 -0.6224,0.0625 -1.125,0.0625 l -4.7187,0 0,3.9375 c 0,0.23045 0.022,0.3057 0.031,0.375 0.04,-0.004 0.033,-0.005 0.1875,-0.0313 0.2567,-0.0427 0.6418,-0.125 1.1562,-0.125 1.1678,0 2.1846,0.6247 2.9063,1.46875 0.7216,0.84405 1.1562,1.93575 1.1562,3 0,1.05668 -0.4122,2.12247 -1.125,2.96875 -0.7128,0.84628 -1.7351,1.46875 -2.9375,1.46875 -0.5144,0 -0.8996,-0.0508 -1.1562,-0.0937 -0.153,-0.0253 -0.1462,-0.0272 -0.1875,-0.0313 -0.01,0.0761 -0.031,0.1323 -0.031,0.34375 l 0,3.9375 17.2187,0 0,-17.21875 -4.7187,0 c -0.5027,0 -0.8348,-0.019 -1.125,-0.0625 -0.2903,-0.0435 -0.5555,-0.11853 -0.75,-0.28125 -0.2157,-0.18068 -0.3225,-0.50475 -0.3125,-0.75 0.01,-0.24525 0.082,-0.42999 0.1562,-0.625 0.149,-0.39001 0.3125,-0.78275 0.3125,-1.34375 0,-1.20907 -0.9473,-2.1875 -2.1562,-2.1875 z"
           style="color:#000000;fill:#ffffff;fill-opacity:1;fill-rule:nonzero;stroke:none;stroke-width:0.23958097;marker:none;visibility:visible;display:inline;overflow:visible;enable-background:accumulate"
           inkscape:connector-curvature="0" />
      </g>
      <path
         style="color:#000000;fill:#ffffff;fill-opacity:1;fill-rule:nonzero;stroke:none;stroke-width:0.23958097;marker:none;visibility:visible;display:inline;overflow:visible;enable-background:accumulate"
         d="m 462.08032,1114.1937 c -3.72393,0 -7.44408,1.3863 -10.26469,4.2069 -5.64118,5.6413 -5.58502,14.8882 0.0561,20.5294 4.75624,4.7562 12.0575,5.5008 17.61265,2.2437 l 9.98424,9.9843 c 1.381,1.381 3.72328,1.381 5.1043,0 1.38104,-1.3812 1.38104,-3.7234 0,-5.1044 l -9.98424,-9.9843 c 3.264,-5.5621 2.51261,-12.9125 -2.24366,-17.6687 -2.8206,-2.8206 -6.54075,-4.2069 -10.26469,-4.2069 z m 0,5.3288 c 2.3287,0 4.65879,0.9005 6.45049,2.6923 3.58342,3.5834 3.58342,9.3176 0,12.9011 -3.5834,3.5833 -9.31757,3.5833 -12.90099,0 -3.5834,-3.5835 -3.5834,-9.3177 0,-12.9011 1.79172,-1.7918 4.12181,-2.6923 6.4505,-2.6923 z m -5.1043,4.5995 c -2.61647,2.6164 -2.61647,6.8629 0,9.4793 2.01026,2.0104 4.95191,2.3746 7.40405,1.2902 1.11957,-0.5195 0.91705,-1.5144 0.11215,-1.5144 -1.60244,0 -3.12287,-0.767 -4.31902,-1.9631 -1.79929,-1.7994 -2.43567,-4.3267 -1.90709,-6.619 0.12958,-0.4648 -0.26888,-0.9863 -0.7853,-0.9535 0,0 -0.22074,0 -0.50482,0.2805 z"
         id="path16414"
         inkscape:connector-curvature="0"
         sodipodi:nodetypes="ssscssscssscssssccccscccc" />
      <path
         style="color:#000000;fill:#ffffff;fill-opacity:1;fill-rule:nonzero;stroke:none;stroke-width:0.23958097;marker:none;visibility:visible;display:inline;overflow:visible;enable-background:accumulate"
         d="m 533.13892,1113.2139 c -2.10089,0.1621 -3.7975,1.984 -3.77852,3.9759 0.0309,3.2371 2.57129,4.788 8.76956,10.546 6.19825,-5.758 8.76689,-7.3089 8.79775,-10.546 0.0338,-3.5411 -5.38409,-6.5612 -8.79775,-0.6486 -1.49349,-2.5867 -3.357,-3.4536 -4.99104,-3.3273 z m -9.02332,16.4393 c -0.68239,-0.027 -1.86678,0.2425 -2.96079,0.8742 l -9.11746,5.2674 c 0,0 -0.47201,0.2615 -0.49803,0.8861 l 0,15.9909 c 0,0.6764 0.48304,0.5016 0.48304,0.5016 l 14.60285,-8.4342 16.69316,0 c 0.44008,0.016 1.25107,-0.2641 1.86107,-0.8743 l 8.40298,-8.3747 c 1.16244,-1.1624 1.16244,-3.039 0,-4.2014 -1.16245,-1.1626 -3.03904,-1.1626 -4.20149,0 l -6.28815,6.2597 c -0.0635,-0.01 -0.13269,0 -0.19738,0 l -1.44866,0 6.09074,-6.0342 c -0.18236,-0.2117 -0.29704,-0.3879 -0.55338,-0.5356 -0.45761,-0.2643 -0.94978,-0.3727 -1.4381,-0.3386 -0.81384,0.057 -1.58989,0.5063 -2.03025,1.2689 l -3.24275,5.6395 -7.92361,0 0,-1.9174 4.34248,0 c 1.64394,0 2.96078,-1.3167 2.96078,-2.9605 0,-1.6442 -1.31684,-2.9891 -2.96078,-2.9891 l -12.57627,-0.028 z"
         id="path16416"
         inkscape:connector-curvature="0"
         sodipodi:nodetypes="sscscsccccccccccsccsccscccccssccc" />
    </g>
  </g>
</svg>
